<svg xmlns="http://www.w3.org/2000/svg" width="1em" height="1em" fill="none" stroke="currentColor" stroke-width="0" viewBox="0 0 15 15"><path fill="currentColor" fill-rule="evenodd" stroke="none" d="M1.5 3c-.27614 0-.5.22386-.5.5s.22386.5.5.5h12c.2761 0 .5-.22386.5-.5s-.2239-.5-.5-.5h-12ZM1 7.5c0-.27614.22386-.5.5-.5h12c.2761 0 .5.22386.5.5s-.2239.5-.5.5h-12c-.27614 0-.5-.22386-.5-.5Zm0 4c0-.2761.22386-.5.5-.5h12c.2761 0 .5.2239.5.5s-.2239.5-.5.5h-12c-.27614 0-.5-.2239-.5-.5Z" clip-rule="evenodd"/></svg>